<mxfile host="Electron" modified="2024-03-15T12:32:44.063Z" agent="Mozilla/5.0 (Macintosh; Intel Mac OS X 10_15_7) AppleWebKit/537.36 (KHTML, like Gecko) draw.io/22.1.11 Chrome/114.0.5735.289 Electron/25.9.8 Safari/537.36" etag="jyWMYXSm2tyd1mhStXSI" version="22.1.11" type="device">
  <diagram name="Page-1" id="WyKSAz91Mvaqqxc7_j_f">
    <mxGraphModel dx="1468" dy="1214" grid="1" gridSize="10" guides="1" tooltips="1" connect="1" arrows="1" fold="1" page="1" pageScale="1" pageWidth="827" pageHeight="1169" math="0" shadow="0">
      <root>
        <mxCell id="0" />
        <mxCell id="1" parent="0" />
        <mxCell id="x9LIum31tcK-ks038Ztq-22" value="" style="rounded=0;whiteSpace=wrap;html=1;" parent="1" vertex="1">
          <mxGeometry x="260" y="50" width="350" height="700" as="geometry" />
        </mxCell>
        <mxCell id="x9LIum31tcK-ks038Ztq-4" value="" style="edgeStyle=orthogonalEdgeStyle;rounded=0;orthogonalLoop=1;jettySize=auto;html=1;" parent="1" source="x9LIum31tcK-ks038Ztq-1" target="x9LIum31tcK-ks038Ztq-3" edge="1">
          <mxGeometry relative="1" as="geometry" />
        </mxCell>
        <mxCell id="x9LIum31tcK-ks038Ztq-1" value="&lt;font style=&quot;font-size: 11px;&quot;&gt;Resource Group&lt;/font&gt;" style="rounded=0;whiteSpace=wrap;html=1;" parent="1" vertex="1">
          <mxGeometry x="294" y="90" width="120" height="60" as="geometry" />
        </mxCell>
        <mxCell id="x9LIum31tcK-ks038Ztq-10" value="" style="edgeStyle=orthogonalEdgeStyle;rounded=0;orthogonalLoop=1;jettySize=auto;html=1;" parent="1" source="x9LIum31tcK-ks038Ztq-3" target="x9LIum31tcK-ks038Ztq-9" edge="1">
          <mxGeometry relative="1" as="geometry" />
        </mxCell>
        <mxCell id="x9LIum31tcK-ks038Ztq-11" value="No" style="edgeLabel;html=1;align=center;verticalAlign=middle;resizable=0;points=[];" parent="x9LIum31tcK-ks038Ztq-10" vertex="1" connectable="0">
          <mxGeometry x="-0.1155" relative="1" as="geometry">
            <mxPoint as="offset" />
          </mxGeometry>
        </mxCell>
        <mxCell id="x9LIum31tcK-ks038Ztq-3" value="&lt;font style=&quot;font-size: 11px;&quot;&gt;Contains a&amp;nbsp;&lt;br&gt;&quot;persist&quot; : &quot;true&quot;&lt;br&gt;tag ?&lt;/font&gt;" style="rhombus;whiteSpace=wrap;html=1;rounded=0;" parent="1" vertex="1">
          <mxGeometry x="299" y="180" width="110" height="110" as="geometry" />
        </mxCell>
        <mxCell id="x9LIum31tcK-ks038Ztq-6" value="Skip deletion" style="strokeWidth=2;html=1;shape=mxgraph.flowchart.terminator;whiteSpace=wrap;fillColor=#dae8fc;strokeColor=#6c8ebf;" parent="1" vertex="1">
          <mxGeometry x="490" y="205" width="100" height="60" as="geometry" />
        </mxCell>
        <mxCell id="x9LIum31tcK-ks038Ztq-7" style="edgeStyle=orthogonalEdgeStyle;rounded=0;orthogonalLoop=1;jettySize=auto;html=1;entryX=0;entryY=0.5;entryDx=0;entryDy=0;entryPerimeter=0;" parent="1" source="x9LIum31tcK-ks038Ztq-3" target="x9LIum31tcK-ks038Ztq-6" edge="1">
          <mxGeometry relative="1" as="geometry" />
        </mxCell>
        <mxCell id="x9LIum31tcK-ks038Ztq-8" value="Yes" style="edgeLabel;html=1;align=center;verticalAlign=middle;resizable=0;points=[];" parent="x9LIum31tcK-ks038Ztq-7" vertex="1" connectable="0">
          <mxGeometry x="-0.0728" y="2" relative="1" as="geometry">
            <mxPoint as="offset" />
          </mxGeometry>
        </mxCell>
        <mxCell id="x9LIum31tcK-ks038Ztq-15" value="" style="edgeStyle=orthogonalEdgeStyle;rounded=0;orthogonalLoop=1;jettySize=auto;html=1;" parent="1" source="x9LIum31tcK-ks038Ztq-9" target="x9LIum31tcK-ks038Ztq-14" edge="1">
          <mxGeometry relative="1" as="geometry" />
        </mxCell>
        <mxCell id="x9LIum31tcK-ks038Ztq-16" value="Yes" style="edgeLabel;html=1;align=center;verticalAlign=middle;resizable=0;points=[];" parent="x9LIum31tcK-ks038Ztq-15" vertex="1" connectable="0">
          <mxGeometry x="-0.219" y="-1" relative="1" as="geometry">
            <mxPoint as="offset" />
          </mxGeometry>
        </mxCell>
        <mxCell id="x9LIum31tcK-ks038Ztq-9" value="&lt;span style=&quot;font-size: 11px;&quot;&gt;Has a creation timestamp tag?&lt;/span&gt;" style="rhombus;whiteSpace=wrap;html=1;rounded=0;" parent="1" vertex="1">
          <mxGeometry x="299" y="340" width="110" height="110" as="geometry" />
        </mxCell>
        <mxCell id="x9LIum31tcK-ks038Ztq-12" style="edgeStyle=orthogonalEdgeStyle;rounded=0;orthogonalLoop=1;jettySize=auto;html=1;entryX=0.5;entryY=1;entryDx=0;entryDy=0;entryPerimeter=0;" parent="1" source="x9LIum31tcK-ks038Ztq-9" target="x9LIum31tcK-ks038Ztq-6" edge="1">
          <mxGeometry relative="1" as="geometry" />
        </mxCell>
        <mxCell id="x9LIum31tcK-ks038Ztq-13" value="No" style="edgeLabel;html=1;align=center;verticalAlign=middle;resizable=0;points=[];" parent="x9LIum31tcK-ks038Ztq-12" vertex="1" connectable="0">
          <mxGeometry x="0.4193" relative="1" as="geometry">
            <mxPoint as="offset" />
          </mxGeometry>
        </mxCell>
        <mxCell id="x9LIum31tcK-ks038Ztq-17" style="edgeStyle=orthogonalEdgeStyle;rounded=0;orthogonalLoop=1;jettySize=auto;html=1;entryX=0.754;entryY=0.975;entryDx=0;entryDy=0;entryPerimeter=0;" parent="1" source="x9LIum31tcK-ks038Ztq-14" target="x9LIum31tcK-ks038Ztq-6" edge="1">
          <mxGeometry relative="1" as="geometry" />
        </mxCell>
        <mxCell id="x9LIum31tcK-ks038Ztq-18" value="No" style="edgeLabel;html=1;align=center;verticalAlign=middle;resizable=0;points=[];" parent="x9LIum31tcK-ks038Ztq-17" vertex="1" connectable="0">
          <mxGeometry x="-0.017" y="-1" relative="1" as="geometry">
            <mxPoint y="-31" as="offset" />
          </mxGeometry>
        </mxCell>
        <mxCell id="x9LIum31tcK-ks038Ztq-14" value="&lt;span style=&quot;font-size: 11px;&quot;&gt;Is the creation date older than 2 days ?&lt;/span&gt;" style="rhombus;whiteSpace=wrap;html=1;rounded=0;" parent="1" vertex="1">
          <mxGeometry x="293.5" y="500" width="121" height="120" as="geometry" />
        </mxCell>
        <mxCell id="x9LIum31tcK-ks038Ztq-19" value="Delete resource group" style="strokeWidth=2;html=1;shape=mxgraph.flowchart.terminator;whiteSpace=wrap;fillColor=#dae8fc;strokeColor=#6c8ebf;" parent="1" vertex="1">
          <mxGeometry x="286" y="680" width="136" height="60" as="geometry" />
        </mxCell>
        <mxCell id="x9LIum31tcK-ks038Ztq-20" style="edgeStyle=orthogonalEdgeStyle;rounded=0;orthogonalLoop=1;jettySize=auto;html=1;entryX=0.5;entryY=0;entryDx=0;entryDy=0;entryPerimeter=0;" parent="1" source="x9LIum31tcK-ks038Ztq-14" target="x9LIum31tcK-ks038Ztq-19" edge="1">
          <mxGeometry relative="1" as="geometry" />
        </mxCell>
        <mxCell id="x9LIum31tcK-ks038Ztq-21" value="Yes" style="edgeLabel;html=1;align=center;verticalAlign=middle;resizable=0;points=[];" parent="x9LIum31tcK-ks038Ztq-20" vertex="1" connectable="0">
          <mxGeometry x="-0.2055" y="2" relative="1" as="geometry">
            <mxPoint as="offset" />
          </mxGeometry>
        </mxCell>
        <mxCell id="x9LIum31tcK-ks038Ztq-23" value="for each resource group in current subscription" style="text;html=1;align=center;verticalAlign=middle;resizable=0;points=[];autosize=1;strokeColor=none;fillColor=none;" parent="1" vertex="1">
          <mxGeometry x="300" y="50" width="270" height="30" as="geometry" />
        </mxCell>
      </root>
    </mxGraphModel>
  </diagram>
</mxfile>